<svg width="36" height="40" viewBox="0 0 36 40" xmlns="http://www.w3.org/2000/svg" xmlns:xlink="http://www.w3.org/1999/xlink"><title>DFF2C347-FD67-4E55-B332-B61EB178AC5D</title><defs><path id="a" d="M8.877 15.078V.068H.063v15.01h8.814z"/></defs><g fill="none" fill-rule="evenodd"><path fill="#FFF" d="M26.441 25.074V15.031l-8.814-4.997-8.814 4.997v10.043l8.814 4.903z"/><g transform="translate(26.378 4.928)"><mask id="b" fill="#fff"><use xlink:href="#a"/></mask><path fill="#F9F3D9" mask="url(#b)" d="M-.016 10.065l8.893 5.013V5.081L-.016.03z"/></g><path fill="#F1E094" d="M17.628 0v10.034l8.813 4.997V4.997zM26.441 25.072l8.814 4.975v-10.04l-8.814-4.976z"/><path fill="#E7CF62" d="M17.628 29.977l8.827 5.026 8.8-4.956-8.814-4.975z"/><path fill="#F9F3D9" d="M8.814 15.03L0 20.008v-9.998l8.814-5.012z"/><path fill="#C69A2E" d="M17.628 0L8.814 4.997V15.03l8.814-4.997zM0 20.007v10.04l8.814-4.975V15.03z"/><path fill="#E7CF62" d="M0 30.047l8.8 4.956 8.828-5.026-8.814-4.905z"/><path fill="#F9F3D9" d="M17.634 39.968l8.821-4.965-8.827-5.026L8.8 35.003z"/><path fill="#F9F1D0" d="M8.813 25.072l8.542 4.754v-9.723l-8.542-4.819zM17.628 10.034l-8.603 4.877 8.603 4.846 8.593-4.851zM17.798 20.16v9.723l8.644-4.811v-9.79z"/><g fill="#E7CF62"><path d="M21.46 14.844c-.012-1.461-1.446-2.605-3.648-2.67-.745-.021-1.463.124-1.79.186l-1.186-.743-2.947 1.67 1.608.947a5.647 5.647 0 0 0-.034.675c.016 1.461 2.036 2.572 4.238 2.55 2.202-.023 3.77-1.33 3.76-2.615M20.128 25.98c1.303.71 3.243-.143 4.315-2.027.173-.304.404-1.01.512-1.319l1.487-.845v-3.148l-1.776.91c-.067-.011-.476-.386-.568-.436-1.303-.711-3.221.229-4.293 2.114-1.072 1.884-.98 4.039.323 4.75M15.702 21.222c-1.118-1.858-3.067-2.763-4.352-2.02-1.285.741-1.42 2.85-.301 4.708.18.3.383.574.6.821v1.919l3.47 1.931v-2.518c.097-.036.191-.08.282-.132 1.285-.742 1.42-2.85.301-4.709"/></g></g></svg>