<svg width="81" height="31" viewBox="0 0 81 31" xmlns="http://www.w3.org/2000/svg"><title>4831145B-ED5A-4DA7-B47A-5A7E8DAE5097</title><path d="M10.392 6.448c0 .95-.139 1.787-.416 2.512-.277.725-.653 1.33-1.128 1.816a4.658 4.658 0 0 1-1.656 1.096 5.457 5.457 0 0 1-2 .368c-.704 0-1.37-.123-2-.368a4.658 4.658 0 0 1-1.656-1.096c-.475-.485-.85-1.09-1.128-1.816-.277-.725-.416-1.563-.416-2.512 0-.95.139-1.784.416-2.504.277-.72.653-1.323 1.128-1.808A4.658 4.658 0 0 1 3.192 1.04a5.457 5.457 0 0 1 2-.368c.704 0 1.37.123 2 .368.63.245 1.181.61 1.656 1.096.475.485.85 1.088 1.128 1.808.277.72.416 1.555.416 2.504zm-1.152 0c0-.747-.096-1.416-.288-2.008a4.422 4.422 0 0 0-.816-1.512 3.49 3.49 0 0 0-1.272-.952 4.103 4.103 0 0 0-1.672-.328c-.619 0-1.176.11-1.672.328a3.49 3.49 0 0 0-1.272.952c-.352.416-.624.92-.816 1.512-.192.592-.288 1.261-.288 2.008 0 .747.096 1.416.288 2.008.192.592.464 1.096.816 1.512.352.416.776.736 1.272.96a4.018 4.018 0 0 0 1.672.336c.619 0 1.176-.112 1.672-.336.496-.224.92-.544 1.272-.96.352-.416.624-.92.816-1.512.192-.592.288-1.261.288-2.008zm3.56 4.064a3.497 3.497 0 0 0 .864.48c.192.075.4.136.624.184.224.048.459.072.704.072.512 0 .941-.088 1.288-.264.347-.176.627-.416.84-.72.213-.304.368-.661.464-1.072.096-.41.144-.845.144-1.304 0-1.088-.272-1.923-.816-2.504-.544-.581-1.264-.872-2.16-.872-.512 0-.925.024-1.24.072a4.605 4.605 0 0 0-.712.152v5.776zm0 4.448h-1.04V4.016c.31-.107.704-.208 1.184-.304s1.088-.144 1.824-.144c.608 0 1.16.099 1.656.296a3.58 3.58 0 0 1 1.28.856c.357.373.635.827.832 1.36.197.533.296 1.136.296 1.808 0 .63-.083 1.208-.248 1.736a3.87 3.87 0 0 1-.728 1.36 3.35 3.35 0 0 1-1.176.888c-.464.213-.995.32-1.592.32-.544 0-1.016-.077-1.416-.232-.4-.155-.69-.301-.872-.44v3.44zm6.792-7.104c0-.725.104-1.357.312-1.896.208-.539.48-.99.816-1.352.336-.363.72-.632 1.152-.808a3.51 3.51 0 0 1 1.336-.264c1.013 0 1.821.33 2.424.992.603.661.904 1.68.904 3.056a4.103 4.103 0 0 1-.032.496h-5.808c.032 1.013.283 1.792.752 2.336.47.544 1.216.816 2.24.816.565 0 1.013-.053 1.344-.16.33-.107.57-.197.72-.272l.192.896c-.15.085-.43.187-.84.304-.41.117-.893.176-1.448.176-.725 0-1.344-.107-1.856-.32a3.322 3.322 0 0 1-1.264-.896c-.33-.384-.57-.84-.72-1.368a6.363 6.363 0 0 1-.224-1.736zm5.872-.656c-.021-.864-.224-1.536-.608-2.016s-.928-.72-1.632-.72c-.373 0-.707.075-1 .224-.293.15-.55.35-.768.6-.219.25-.39.541-.512.872-.123.33-.195.677-.216 1.04h4.736zm2.392-3.184c.31-.085.725-.181 1.248-.288.523-.107 1.163-.16 1.92-.16.63 0 1.155.09 1.576.272.421.181.757.44 1.008.776.25.336.43.739.536 1.208.107.47.16.987.16 1.552V12h-1.04V7.712c0-.587-.04-1.083-.12-1.488-.08-.405-.213-.736-.4-.992a1.555 1.555 0 0 0-.736-.552c-.304-.112-.685-.168-1.144-.168-.49 0-.915.027-1.272.08-.357.053-.59.101-.696.144V12h-1.04V4.016zm13.2 7.28c.864 0 1.536-.157 2.016-.472.48-.315.72-.824.72-1.528 0-.405-.077-.744-.232-1.016a2.172 2.172 0 0 0-.616-.688 4.068 4.068 0 0 0-.88-.48c-.33-.133-.677-.275-1.04-.424-.459-.181-.87-.368-1.232-.56a4.264 4.264 0 0 1-.928-.648 2.452 2.452 0 0 1-.584-.824c-.133-.31-.2-.672-.2-1.088 0-.95.315-1.67.944-2.16.63-.49 1.504-.736 2.624-.736.299 0 .592.021.88.064.288.043.557.099.808.168.25.07.48.147.688.232.208.085.381.176.52.272l-.384.912a3.866 3.866 0 0 0-1.128-.512 5.135 5.135 0 0 0-1.432-.192c-.352 0-.675.035-.968.104-.293.07-.547.181-.76.336-.213.155-.381.35-.504.584a1.81 1.81 0 0 0-.184.848c0 .341.064.63.192.864.128.235.307.437.536.608.23.17.499.325.808.464.31.139.645.283 1.008.432.437.181.85.363 1.24.544.39.181.728.395 1.016.64.288.245.517.544.688.896.17.352.256.784.256 1.296 0 1.003-.35 1.755-1.048 2.256-.699.501-1.645.752-2.84.752a7.83 7.83 0 0 1-1.168-.08 7.455 7.455 0 0 1-.944-.2 5.534 5.534 0 0 1-.704-.248 4.314 4.314 0 0 1-.448-.224l.352-.944a5.572 5.572 0 0 0 1.072.472 5.963 5.963 0 0 0 1.856.28zm11.88-3.424c0 .65-.093 1.243-.28 1.776a3.96 3.96 0 0 1-.784 1.36 3.57 3.57 0 0 1-1.192.872 3.638 3.638 0 0 1-1.52.312 3.638 3.638 0 0 1-1.52-.312 3.57 3.57 0 0 1-1.192-.872 3.96 3.96 0 0 1-.784-1.36 5.348 5.348 0 0 1-.28-1.776c0-.65.093-1.243.28-1.776a4.05 4.05 0 0 1 .784-1.368 3.521 3.521 0 0 1 1.192-.88 3.638 3.638 0 0 1 1.52-.312c.555 0 1.061.104 1.52.312.459.208.856.501 1.192.88.336.379.597.835.784 1.368.187.533.28 1.125.28 1.776zm-1.104 0c0-1.035-.24-1.859-.72-2.472s-1.13-.92-1.952-.92c-.821 0-1.472.307-1.952.92s-.72 1.437-.72 2.472.24 1.856.72 2.464c.48.608 1.13.912 1.952.912.821 0 1.472-.304 1.952-.912.48-.608.72-1.43.72-2.464zm8.712 3.84c-.31.085-.725.181-1.248.288-.523.107-1.163.16-1.92.16-.619 0-1.136-.09-1.552-.272a2.52 2.52 0 0 1-1.008-.768c-.256-.33-.44-.73-.552-1.2a6.688 6.688 0 0 1-.168-1.552v-4.64h1.04v4.304c0 .587.043 1.083.128 1.488s.224.733.416.984c.192.25.44.432.744.544.304.112.675.168 1.112.168.49 0 .917-.027 1.28-.08.363-.053.592-.101.688-.144V3.728h1.04v7.984zm4.568-8.144a5.6 5.6 0 0 1 .968.08c.304.053.515.107.632.16l-.208.896c-.085-.043-.259-.088-.52-.136a5.936 5.936 0 0 0-1.032-.072c-.448 0-.808.032-1.08.096s-.45.117-.536.16V12h-1.04V4.112a7.67 7.67 0 0 1 1.104-.36c.47-.123 1.04-.184 1.712-.184zm5.592 8.608c-.64 0-1.205-.101-1.696-.304A3.19 3.19 0 0 1 67.784 11a3.9 3.9 0 0 1-.744-1.36 5.674 5.674 0 0 1-.256-1.752c0-.65.088-1.243.264-1.776.176-.533.43-.992.76-1.376.33-.384.73-.68 1.2-.888a3.87 3.87 0 0 1 1.584-.312c.448 0 .867.037 1.256.112.39.075.69.17.904.288l-.272.896a3.359 3.359 0 0 0-.72-.256c-.267-.064-.624-.096-1.072-.096-.917 0-1.613.296-2.088.888-.475.592-.712 1.432-.712 2.52 0 .49.053.941.16 1.352.107.41.28.763.52 1.056.24.293.55.523.928.688.379.165.84.248 1.384.248.448 0 .824-.05 1.128-.152.304-.101.525-.19.664-.264l.224.896c-.192.107-.493.21-.904.312-.41.101-.84.152-1.288.152zm2.44-4.32c0-.725.104-1.357.312-1.896.208-.539.48-.99.816-1.352.336-.363.72-.632 1.152-.808a3.51 3.51 0 0 1 1.336-.264c1.013 0 1.821.33 2.424.992.603.661.904 1.68.904 3.056a4.103 4.103 0 0 1-.032.496h-5.808c.032 1.013.283 1.792.752 2.336.47.544 1.216.816 2.24.816.565 0 1.013-.053 1.344-.16.33-.107.57-.197.72-.272l.192.896c-.15.085-.43.187-.84.304-.41.117-.893.176-1.448.176-.725 0-1.344-.107-1.856-.32a3.322 3.322 0 0 1-1.264-.896c-.33-.384-.57-.84-.72-1.368a6.363 6.363 0 0 1-.224-1.736zm5.872-.656c-.021-.864-.224-1.536-.608-2.016s-.928-.72-1.632-.72c-.373 0-.707.075-1 .224-.293.15-.55.35-.768.6-.219.25-.39.541-.512.872-.123.33-.195.677-.216 1.04h4.736zM5.22 30.18c-.76 0-1.517-.023-2.27-.07a16.044 16.044 0 0 1-2.35-.33V16.34c.64-.12 1.34-.21 2.1-.27.76-.06 1.467-.09 2.12-.09.88 0 1.69.063 2.43.19.74.127 1.377.343 1.91.65.533.307.95.71 1.25 1.21.3.5.45 1.117.45 1.85 0 1.107-.533 1.98-1.6 2.62.88.333 1.48.787 1.8 1.36.32.573.48 1.22.48 1.94 0 1.453-.53 2.547-1.59 3.28-1.06.733-2.637 1.1-4.73 1.1zm-1.58-6.22v3.58c.227.027.473.047.74.06.267.013.56.02.88.02.933 0 1.687-.133 2.26-.4.573-.267.86-.76.86-1.48 0-.64-.24-1.097-.72-1.37-.48-.273-1.167-.41-2.06-.41H3.64zm0-2.38h1.52c.96 0 1.647-.123 2.06-.37.413-.247.62-.643.62-1.19 0-.56-.213-.953-.64-1.18-.427-.227-1.053-.34-1.88-.34-.267 0-.553.003-.86.01-.307.007-.58.023-.82.05v3.02zm8.7 3.24c0-.933.143-1.75.43-2.45.287-.7.663-1.283 1.13-1.75a4.7 4.7 0 0 1 1.61-1.06 5.04 5.04 0 0 1 1.87-.36c1.493 0 2.673.457 3.54 1.37s1.3 2.257 1.3 4.03c0 .173-.007.363-.02.57-.013.207-.027.39-.04.55H15.4c.067.613.353 1.1.86 1.46.507.36 1.187.54 2.04.54.547 0 1.083-.05 1.61-.15.527-.1.957-.223 1.29-.37l.4 2.42c-.16.08-.373.16-.64.24-.267.08-.563.15-.89.21-.327.06-.677.11-1.05.15-.373.04-.747.06-1.12.06-.947 0-1.77-.14-2.47-.42-.7-.28-1.28-.663-1.74-1.15a4.564 4.564 0 0 1-1.02-1.73 6.853 6.853 0 0 1-.33-2.16zm7-1.14a3.076 3.076 0 0 0-.13-.74 1.848 1.848 0 0 0-.34-.64 1.81 1.81 0 0 0-.58-.46c-.233-.12-.523-.18-.87-.18-.333 0-.62.057-.86.17-.24.113-.44.263-.6.45-.16.187-.283.403-.37.65-.087.247-.15.497-.19.75h3.94zm3.68 1.14c0-.933.143-1.75.43-2.45.287-.7.663-1.283 1.13-1.75a4.7 4.7 0 0 1 1.61-1.06 5.04 5.04 0 0 1 1.87-.36c1.493 0 2.673.457 3.54 1.37s1.3 2.257 1.3 4.03c0 .173-.007.363-.02.57-.013.207-.027.39-.04.55h-6.76c.067.613.353 1.1.86 1.46.507.36 1.187.54 2.04.54.547 0 1.083-.05 1.61-.15.527-.1.957-.223 1.29-.37l.4 2.42c-.16.08-.373.16-.64.24-.267.08-.563.15-.89.21-.327.06-.677.11-1.05.15-.373.04-.747.06-1.12.06-.947 0-1.77-.14-2.47-.42-.7-.28-1.28-.663-1.74-1.15a4.564 4.564 0 0 1-1.02-1.73 6.853 6.853 0 0 1-.33-2.16zm7-1.14a3.076 3.076 0 0 0-.13-.74 1.848 1.848 0 0 0-.34-.64 1.81 1.81 0 0 0-.58-.46c-.233-.12-.523-.18-.87-.18-.333 0-.62.057-.86.17-.24.113-.44.263-.6.45-.16.187-.283.403-.37.65-.087.247-.15.497-.19.75h3.94zM34.2 30V14.96l2.98-.48v5.04c.2-.067.457-.13.77-.19s.617-.09.91-.09c.853 0 1.563.117 2.13.35.567.233 1.02.563 1.36.99.34.427.58.933.72 1.52s.21 1.24.21 1.96V30H40.3v-5.58c0-.96-.123-1.64-.37-2.04-.247-.4-.703-.6-1.37-.6-.267 0-.517.023-.75.07a8.066 8.066 0 0 0-.63.15v8H34.2zm13.76 0h-2.98V19.48h2.98V30zm.28-13.56c0 .547-.177.977-.53 1.29-.353.313-.77.47-1.25.47s-.897-.157-1.25-.47c-.353-.313-.53-.743-.53-1.29s.177-.977.53-1.29c.353-.313.77-.47 1.25-.47s.897.157 1.25.47c.353.313.53.743.53 1.29zM52.3 30c-.68-1.333-1.37-2.893-2.07-4.68a73.45 73.45 0 0 1-1.99-5.84h3.16c.133.52.29 1.083.47 1.69a138.956 138.956 0 0 0 1.14 3.65c.193.587.383 1.12.57 1.6.173-.48.36-1.013.56-1.6.2-.587.397-1.19.59-1.81.193-.62.38-1.233.56-1.84.18-.607.337-1.17.47-1.69h3.08a73.45 73.45 0 0 1-1.99 5.84c-.7 1.787-1.39 3.347-2.07 4.68H52.3zm6.36-5.18c0-.933.143-1.75.43-2.45.287-.7.663-1.283 1.13-1.75a4.7 4.7 0 0 1 1.61-1.06 5.04 5.04 0 0 1 1.87-.36c1.493 0 2.673.457 3.54 1.37s1.3 2.257 1.3 4.03c0 .173-.007.363-.02.57-.013.207-.027.39-.04.55h-6.76c.067.613.353 1.1.86 1.46.507.36 1.187.54 2.04.54.547 0 1.083-.05 1.61-.15.527-.1.957-.223 1.29-.37l.4 2.42c-.16.08-.373.16-.64.24-.267.08-.563.15-.89.21-.327.06-.677.11-1.05.15-.373.04-.747.06-1.12.06-.947 0-1.77-.14-2.47-.42-.7-.28-1.28-.663-1.74-1.15a4.564 4.564 0 0 1-1.02-1.73 6.853 6.853 0 0 1-.33-2.16zm7-1.14a3.076 3.076 0 0 0-.13-.74 1.848 1.848 0 0 0-.34-.64 1.81 1.81 0 0 0-.58-.46c-.233-.12-.523-.18-.87-.18-.333 0-.62.057-.86.17-.24.113-.44.263-.6.45-.16.187-.283.403-.37.65-.087.247-.15.497-.19.75h3.94zm7.2 4.18c.547 0 .933-.053 1.16-.16.227-.107.34-.313.34-.62 0-.24-.147-.45-.44-.63-.293-.18-.74-.383-1.34-.61-.467-.173-.89-.353-1.27-.54a3.733 3.733 0 0 1-.97-.67 2.71 2.71 0 0 1-.62-.93c-.147-.36-.22-.793-.22-1.3 0-.987.367-1.767 1.1-2.34.733-.573 1.74-.86 3.02-.86.64 0 1.253.057 1.84.17.587.113 1.053.237 1.4.37l-.52 2.32c-.347-.12-.723-.227-1.13-.32a6.141 6.141 0 0 0-1.37-.14c-.933 0-1.4.26-1.4.78 0 .12.02.227.06.32.04.093.12.183.24.27.12.087.283.18.49.28.207.1.47.21.79.33.653.24 1.193.477 1.62.71.427.233.763.487 1.01.76s.42.577.52.91c.1.333.15.72.15 1.16 0 1.04-.39 1.827-1.17 2.36-.78.533-1.883.8-3.31.8-.933 0-1.71-.08-2.33-.24-.62-.16-1.05-.293-1.29-.4l.5-2.42c.507.2 1.027.357 1.56.47.533.113 1.06.17 1.58.17z" fill="#FFF" fill-rule="evenodd"/></svg>