<svg width="34" height="39" viewBox="0 0 34 39" xmlns="http://www.w3.org/2000/svg"><title>DFF2C347-FD67-4E55-B332-B61EB178AC5D</title><g fill="none" fill-rule="evenodd"><path fill="#FFF" d="M17 0l17 9.75v19.5L17 39 0 29.25V9.75z"/><path fill="#C69A2E" d="M8.252 24.528l-.057-9.477-8.048 4.652.058 9.402z"/><path fill="#F1E094" d="M24.708 24.528l.058-9.477 8.047 4.652-.057 9.402z"/><path fill="#F9F4D9" d="M32.842 10.45L24.68 5.725v9.376l8.162 4.652z"/><path fill="#F1E094" d="M24.68 5.725L16.443 1v9.376l8.237 4.725z"/><path fill="#F9F4D9" d="M.119 10.45L8.28 5.725v9.376L.119 19.753z"/><path fill="#C69A2E" d="M8.28 5.725L16.444 1v9.376L8.28 15.101z"/><path fill="#E7CF62" d="M24.785 33.756l-8.181-4.753 8.048-4.574 8.104 4.674z"/><path fill="#F9F4D9" d="M16.62 38.408l-4.097-2.369-4.155-2.383 8.12-4.65 8.18 4.75z"/><path fill="#E7CF62" d="M8.31 33.756l-8.105-4.75 8.048-4.577 8.178 4.69z"/><g><path fill="#F8F1D0" d="M16.443 10.376l7.863 4.504-7.863 4.504-7.788-4.504z"/><path d="M14.846 12.61l-1.099-.683-2.546 1.476 1.415.977c-.044.15-.067.305-.067.463 0 1.325 1.626 2.4 3.632 2.4 2.006 0 3.632-1.075 3.632-2.4s-1.626-2.4-3.632-2.4c-.472 0-.922.06-1.335.168z" fill="#E7CF62"/></g><g><path fill="#F8F1D0" d="M24.644 24.477l.056-9.103-7.882 4.6-.055 9.029z"/><path d="M21.902 24.71l-.009 1.351-2.602 1.509.01-1.77a1.635 1.635 0 0 1-.509-.189c-1.148-.662-1.265-2.608-.262-4.345 1.003-1.737 2.746-2.608 3.894-1.945 1.148.663 1.265 2.608.262 4.345a5.307 5.307 0 0 1-.784 1.044z" fill="#E7CF62"/></g><g><path fill="#F8F1D0" d="M8.338 24.477l-.056-9.103 7.882 4.6.055 9.029z"/><path d="M11.08 24.71l.009 1.351 2.602 1.509-.01-1.77c.178-.034.35-.097.51-.189 1.147-.662 1.264-2.608.261-4.345-1.003-1.737-2.746-2.608-3.894-1.945-1.147.663-1.265 2.608-.262 4.345.229.395.495.746.785 1.044z" fill="#E7CF62"/></g></g></svg>